<?xml version="1.0" encoding="UTF-8"?>
<svg id="Layer_2" data-name="Layer 2" xmlns="http://www.w3.org/2000/svg" viewBox="0 0 322.84 547.18">
  <defs>
    <style>
      .cls-1 {
        fill: #fff;
      }

      .cls-2 {
        fill: #ff6700;
      }
    </style>
  </defs>
  <g id="Layer_1-2" data-name="Layer 1">
    <path id="orange-patch" class="cls-2" d="m174.04,7.67h3.36l2.88.23h11.52l4.08.24h11.52l4.08.24h11.52l4.08.24h11.52l4.08.24h11.52l3.84.24h7.68c.6,0,1.37-.03,1.92.18.91.34,4.96,3.89,6,4.76l16.56,13.76,8.88,7.36c.8.67,3.43,2.76,3.86,3.47.47.8.79,3.29.96,4.31l1.52,8.4,3.6,19.92c.51,2.81,1.81,8.76,1.82,11.28v45.6l.24,3.12v66.24l.24,3.6v65.04l.24,4.08v65.76l.24,3.6v65.52l.24,3.6v65.28l.24,4.08v16.56c0,.52.03,1.19-.14,1.68-.4,1.17-2.54,3.15-3.46,4.08l-3.6,3.84-6.98,7.44-11,11.52-5.32,5.76c-.64.69-2.02,2.18-2.86,2.5-1.03.39-5.81.55-7.2.65l-15.6,1.2-13.68,1.16-8.16.54-7.2.66-11.28.78-4.08.42-9.6.74-.22-2.64-.94-11.52-2.16-26.16-1.28-16.32-4.48-53.28-.32-4.8-1.84-21.36-.32-4.8-1.84-21.36-.32-4.8-2.08-24.24-.32-4.8-1.2-14.4-.9-10.08-2.14-25.92-.32-4.8-1.84-21.36-.32-4.8-2.8-33.12-.56-7.44-1.68-20.4-1.66-20.16-.66-7.2-.96-11.52-1.28-16.32-.94-11.28-.45-4.8.22-2.4v-2.64l.25-3.12.24-6.96.24-3.6.48-10.8.24-3.6v-1.44l.24-4.08.24-4.56.24-6.96.24-3.6.48-11.04.24-3.84.24-4.56.24-6.96.24-3.12.24-6.96.24-3.6.24-5.04.24-4.56.24-6.72.24-3.12.24-6.95Z"/>
    <path id="black-patch" d="m199.24,540.46h-14.16l-4.08-.24h-48.72l-3.6-.24h-47.76l-3.6-.24h-30.24c-.5,0-1.22.03-1.68-.14-.95-.35-2.69-2.61-3.43-3.46l-8.37-9.6-16.99-19.44-3.95-4.56c-.57-.67-1.54-1.61-1.86-2.4-.24-.59-.2-1.29-.2-1.92v-11.28l.24-4.08v-47.28l.24-3.6v-47.28l.24-3.6v-47.28l.24-3.6v-47.28l.24-3.6v-47.28l.24-3.6v-47.28l.24-3.6v-47.28l.24-3.6v-47.28l.24-3.6v-31.68c0-.48-.03-1.23.14-1.67.35-.9,2.61-2.45,3.46-3.1l9.84-7.68,21.36-16.64,4.32-3.36c2.12-1.67,2.51-2.58,5.28-2.59h9.36l4.08-.24h14.16l4.08-.24h14.64l3.6-.24h14.64l3.6-.24h14.16l4.08-.24h14.16l2.88-.23h4.08v20.39l.24,3.6v27.6l.24,3.6v27.6l.24,3.6v27.6l.24,3.6v27.6l.24,3.6v27.6l.24,3.6v27.6l.24,3.6v27.6l.24,3.6v27.12l.24,3.84v5.52c0,2.43.41,2.15,3.6,4.39l10.56,7.34,8.64,6c2.85,2.03,3.12,1.65,3.12,4.11v2.4l.24,3.6.24,13.44.24,4.08.24,13.2.24,4.08.24,13.2.24,4.08v4.8l.24,3.84v4.8l.24,3.84v5.04l.24,3.6.48,22.08.24,4.08v4.8l.24,3.84v4.8l.24,3.84v4.8l.24,3.84v5.04l.24,3.12v5.04l.24,4.08v4.8l.24,3.84v5.04l.24,3.84v4.8l.24,3.84v5.04l.24,3.6.24,13.2.24,4.08.48,21.84.24,4.8Z"/>
    <path id="ball" class="cls-1" d="m74.2,427.28c4.12-.5,11.29.48,15.36,1.49,17.4,4.33,30.89,16.76,36.79,33.69,1.94,5.57,2.87,12.35,2.81,18.24l-.22,2.4c-.88,12.64-6.42,25.02-15.62,33.83-3.91,3.74-8.37,6.77-13.2,9.19-7.57,3.78-16.03,5.56-24.48,5.46l-2.4-.22c-4.9-.34-9.79-1.3-14.4-3.04-6.76-2.55-13.01-6.39-18.24-11.39-4.08-3.9-7.62-8.86-10.14-13.91-7.87-15.74-7.53-33.49.85-48.96,6.13-11.31,16.77-20.09,28.97-24.16,2.56-.85,6.93-1.88,9.6-2.21l4.32-.42Z"/>
    <path id="nao" class="cls-1" d="m156.52,15.34l1.44.24-.48.24,1.44-.46h20.16c1.98-.02,1.57.12,3.36.56,4.6,1.13,7.09,2.16,11.04,4.83l3.36,2.59c2.58,1.72,4.26,1.54,6.94,4.05l6.98,7.11,6.48,4.63,2.88,1.12c1.78.91,3.99,2.64,4.61,4.62.22.7.19,1.44.19,2.16v29.28l-.24,3.6v6.24l.24,4.8c-.03,1.16-.3,3.08-.89,4.08-.29.48-1.05,1.23-.61,1.82.63.85,2.16-.6,2.94-1,3.13-1.64,6.37-1.98,9.84-2.02l2.64-.22,1.92.2c2.88.2,5.23.11,7.93,1.39l2.11,1.03,1.49.98,1.84.76c1.66.77,3.45,1.74,4.87,2.9,1.76,1.44,2.16,2.38,3.48,3.79,1.46,1.57,2.61,1.97,3.51,4.22.37.93,1.41,5.82,1.42,6.79l.23,4.09v4.07l.24,3.6c.06,2.67-.95,3.67-.71,5.18.12.75,1.27,2.27,1.71,3.22l3.47,6.96c.54.98.77,1.84,1.54,2.64l-.24.48c.99.74,1.46,2.48,2,3.6l.97,1.72,1.2,2.6,1.15,2.16c.66,1.66.18,1.85.83,3.36l1.74,3.84,1.03,1.92,1.03,3.6,1.01,2.64,1.09,3.84,3.73,12.96,1.29,4.08.37,2.64,2.24,9.12c1.21-.56,2.16-1.64,3.6-1.53,2.37.19,3.53,2.95,4.35,4.89.52,1.22.72,3,1.02,4.32l1.08,4.8c.18,1.58-.27,2.2-.27,2.88l.29,1.68v4.08c-.03,1.81-.5,1.64-1.18,3.12l-.85,2.4-.86,2.88-1.48,4.08-1.32,4.56-1.3,3.36-1.29,2.87c-.55.77-1.33,1.12-1.64,1.94-.23.59-.16,3.73-.14,4.55.03,1.87.59,1.84,1.35,3.36l1.19,2.88,3.33,8.16,2.58,6.48c.65,1.9,1.63,3.48,1.62,5.52v3.6c-.18,1.49-.71,1.41-.23,3.12l.24-.72v6.72l-.24,3.6v4.8c0,3.06-1.39,5.84-2.5,8.64l-3.2,8.16c-1.41,2.9-2.06,7.93-5.58,8.93-.93.27-1.39.12-2.16.25l-1.44.36c-2.73.45-3.69.18-6.24,0-.88.03-1.77.12-2.64,0l-2.64-.85-5.04-2.03c-.82-.33-1.75-.91-2.64-.84-1.36.11-5.68,2.51-6.7,3.38-.8.68-1.57,1.98-2.46,2.37-1.87.81-7.52.2-9.8.18-1.09-.01-3.9-.26-4.79-.79-.94-.56-3.17-3.9-3.85-4.97l.48,9.84v3.12c0,2.4.25,1.88.44,3.6l1.05,8.16c.33,1.75.21,6.16,1.15,7.44-.6,2.47.6,5.75,1.36,8.16l2.59,7.92.74,2.4c.62,1.68,1.42,2.06,1.82,3.12.26.69.21,3.43.21,4.32,0,1.31.2,3.71-.44,4.8l-5.56,5.99c-.9.98-1.53,1.33-1.92,2.65,1.21-.1,2.37-.54,3.6-.46.92.06,1.69.29,2.35.97,1.14,1.18,2.42,6.19,2.45,7.89.05,2.33-.61,3.05-1.5,5.04-.4.89-.74,1.83-1.29,2.64-1.02,1.48-2.19,2.32-3.1,4.32-.82,1.81-.58,6.48-.58,8.64,0,2.99.8,3.85,1.75,6.48l1.43,4.32,3.72,12,3.04,9.36c.75,2.69,3.02,7.93,2.41,10.56-.27,1.17-1.44,2.96-2.07,4.08-1.1,1.99-3.63,6.6-5.05,8.15-1.62,1.76-3.04,1.8-3.84,2.92l-1.5,3.33-1.91,3.84c-.24.84-.15,3.32-.15,4.32,4.9.41,6.72,2.79,9.54,6.48,1.01,1.32,2,2.33,2.82,3.84l.92,2.4c2.16,5.43,2.61,10.21.8,15.84-.6,1.87-.79,2.15-1.69,3.84-1.58,2.98-1.67,3.48-4.73,5.35-.43.26-1.22.76-1.66.93-.74.28-3.21.44-4.08.44h-28.56l-3.6-.24h-40.56c-.6,0-1.37.05-1.91-.24-1.12-.61-1.53-3.12-1.94-4.32-.67-1.97-1.03-3.18-1.22-5.28v-1.92c-.36-2.7-.73-5.43-.7-8.16.04-2.74,2.15-4.93,3.44-7.2,1.31-2.3,2.34-5.53,3.88-7.37,1.24-1.48,1.84-2.05,3.33-3.28.81-.67,1.44-.84,1.34-2.07-.12-1.49-1.09-2.09-1.94-3.14-.94-1.16-1.59-2.45-2.17-3.82-.58-1.36-.66-2.28-1.05-3.6-.32-1.08-.72-1.51-.97-2.88l-.46-3.6-.6-2.16c-.37-1.55-.76-4.43-.73-6l.36-4.32,2.29-6.72,1.52-3.36c.7-2.62.17-5.28.15-7.92v-3.6l-.29-3.12c.04-.68.09-1.78,0-2.4l-.99-2.4-1.12-3.84-3.96-15.84c-.69-2.76-1.64-5.56-1.98-8.4-.19-1.64.47-2.73,1.85-3.6,1.21-.76,3.11-1.38,2.8-3.34-.16-1.03-1.35-1.59-2.31-4.1-.82-2.17-1.19-4.48-1.73-6.72-.5-2.09-1.36-5.1-1.41-7.2-.07-3.01.78-2.01.72-6.96l-.22-2.4-.89-10.46.15-2.98v-4.32l.24-3.36v-2.16c0-5.02,2.74-15.8,3.78-21.36l2.65-13.2c.49-2.28.76-4.86,1.73-6.96-1.31.24-1.79.9-2.88,1.57l-4.8,2.69-3.12,1.12-5.52,2.57-2.36.76c-.9.47-2.8,2.19-3.66,2.86l-9.82,7.55-7.2,5.76c-1.41,1.09-3.19,2.45-5.04,2.58-1.42.1-3-.77-4.32-1.29.66,1.57.55,2.52.88,4.08l1.79,10.8,1.48,9.6.64,3.12v2.4l.49,3.6c.03,2.81-.05,1.88-.6,4.32l-.31,1.68-3.34,6.96-4.08,8.4-1.82,4.8-3.56,5.47c-.94.88-2.22,1.12-1.86,2.22l1.44,2.16c1.74,2.96,3.8,6.07,3.81,9.6l-.44,6.72-.32,4.32c-.15,1.5-.74,2.56-.68,4.08-1.86,1.3-3.02,1.41-5.28,1.44l-7.44.24-4.56.24-6.48.26-2.88.22h-35.28l-7.92-.48h-5.28l-3.84-.24h-5.52c-3.17-.04-5.26-.99-8.16-1.91l-5.04-1.72c-2.56-1.05-2.74-.46-5.28-2.59-.46-.39-1.79-1.59-2.11-2.05-.9-1.26-1.76-4.09-1.96-5.65v-1.91c-.18-.97-.66-1.15-.6-1.94.05-.56.51-1.31.68-1.91.21-.74.14-1.63.15-2.4.02-1.28.29-4.66.77-5.76.77-1.76,1.99-2.79,3.31-4.08,2.02-1.97,4.04-3.75,6.24-5.52,2.67-2.14,5.08-4.32,8.64-4.32h4.08c3.53,0,8.26.62,11.28,2.51,2.67,1.68,1.4,1.93,5.04,2.43.61.08,1.8.22,2.26-.14.84-.56.16-1.91,0-2.64l-1.18-4.08-.63-3.6-.55-3.12c-.5-2.18-.97-3.38-1.07-5.76l.31-4.56-.32-1.68c-.3-2.68-.49-4.5,0-7.2.34-2.18.82-3.06,1.7-5.04.46-1.02.66-1.8,1.65-2.4.4-2.13,3.44-3.37,4.39-5.04.39-.68.16-2.04.17-2.88l.41-8.64c-.42-3.03-2.05-6.07-2.14-9.12.04-.79.11-2.71,0-3.36l-1.79-4.32-3.76-11.04c-1.08-3.21-2.55-6.53-.94-9.84.59-1.21,3.43-4.16,4.62-4.91l2.16-1.08,3.84-2.15,2.62-1.1,1.71-1.04c1.26-.61,4.11-1.8,5.03-2.68l.48.24c.63-.95,1.91-1.24,2.88-1.79,3.07-1.75,3.73-1.68,6.96-3.97-.84-.24-2.37-.89-3.12-1.33l-7.92-5.55c-1.09-.74-2.83-2.57-4.18-2.43-.68.07-1.22.68-1.64,1.16-.83.96-1.2,1.6-1.34,2.87-.15,1.37.15,3.05-.93,4.16-1.59,1.62-3.75.71-5.59,1.33-1.43.48-2.38,1.92-4.08,2.92-2.49-1.78-6.53-3.08-8.59-5.52-1.39-1.65-2.47-6.12-3.33-7.17-.73-.89-1.46-.68-2.71-1.5-1.02-.67-1.88-2-2.41-3.09-.93-1.9-1.27-4.37-1.41-6.48-.05-.78.05-1.94-.14-2.64l-1.03-2.16c-.32-.81-.52-2.7-.53-3.6l-.48-9.12-.24-3.84-.24-4.08-.48-9.36c-.03-3.16-.87-7.28-.13-10.32.94-3.87,3.39-5.7,2.34-8.64-.72-2.01-3.25-2.43-4.77-3.93-.95-.94-1.16-2.28-2.01-3.27-.07-1.43-1.16-3.45-1.62-4.8l-1.61-5.76-.82-1.92c-.39-1.02-1.34-4.93-1.42-6-.15-2.03,1.23-3.71,1.83-5.56.42-1.27.49-2.67,1.08-3.8.9-1.72,2.23-2.69,3.5-4.08l2.08-2.44,9.12-11.24,4.53-5.5c.85-.9,2.19-1.81,3.5-1.63,2.13.28,4.13,2.16,5.04,4.01,2.01-1.03,2.42-1.97,4.08-3.01l2.88-1.68,1.51-1.15,4.01-2.7,3.12-2.33,3.34-2.15,1.71-1.33,5.99-4.14,1.92-1.4c1.36-.85,2.46-.79,3.81-2.2,1.57-1.64.9-4.81,1.31-6.95.26-1.39,1.95-3.44,2.88-4.56.96-1.17,2.14-2.14,3.28-3.12,4.9-4.2,7.3-5.22,13.44-6.59l1.68-.51,3.83-.55,4.81.41,2.16.17,2.16.7,2.16.59,7.44,3.62c.58.3,1.15.61,1.64,1.05,1.28,1.17,4.42,6.13,4.99,7.84.31.9.9,2.71,1.01,3.6.06.49,0,1.4.42,1.73.41.31.91.03,1.3-.18,1.06-.55,1.97-1.12,3.12-1.5l5.58-1.15c.95-.06,1.59.5,2.28.13.91-.49,1.3-3.1,1.25-4.06-.05-.8-.21-1.29-.77-1.89-.93-.99-5.18-2.66-6.66-3.49l-2.88-1.33-6.7-3.11-4.1-2.03-5.76-2.55-2.88-1.49-2.88-1.34-1.75-1.52c-1.56-1.1-2.33-.09-2.33-3.08v-14.88l.24-4.08.24-18.24v-7.44l-.2-2.88c.22-3.03.64-6.19,2.15-8.88,1.05-1.87,5.95-5.07,7.89-6.45l4.32-3.18,4.8-3.32,2.88-2.46,7.2-3.22,8.64-3.77c1.74-.79,3.87-1.98,5.76-2.09l-.24-.48Zm55.92,91.92c-2.06.05-3.94,1.18-5.76,2.06l-5.52,2.51-7.68,3.39-6.24,2.66c-.87.28-2.6.48-3.12,1.25-.42.63-.22,2.06.54,2.35.54.24,1.33-.09,2.33,0l5.04.45c.7,0,1.5.22,2.16,0,.95-.25,3.18-2.12,4.08-2.8l5.76-4.64,2.88-2.15c1.04-.83,4.76-2.82,5.28-3.69.25-.43.23-.91.24-1.39Zm20.64,54h-.96c-.52,1.8-2.43,5.21-3.58,6.72-.66.87-2.11,2.14-2.42,2.9l-.7,3.82-3.08,11.04-2.64,5.52-3.12,6-1.14,2.64-1.35,2.16-1.15,2.16-3.14,5.04c-1.3,2.16-2.4,3.15-2.4,5.76v4.8l-.24,3.6c0,4.39-.9,8.86-1.58,13.2l-.44,3.6-1.02,5.76c-.19,1.71.83,2.1.92,3.98.2,3.85.25,2.39-.28,6.1,1.61.4,2.64.35,4.32,1.03,2.66,1.09,3.17,2.01,4.73,4.25.72,1.02,1.23,1.63,1.56,2.88.55,2.08.4,5.02.42,7.2l.24,3.6v3.84c0,1.93.25,2.6,2.4,2.64h3.84l4.8-.24c1.39.02,1.59.15,2.88.55,2.27.7,4.38,2.28,5.4,4.49l.73,2.16c.57,1.69.68,1.69,1.1,3.6l.5,2.64,1.1,3.36.41,2.4,1.42,6c.23,2.18.04,6.6,1.1,8.4l.86-6.24,2.12-9.84c.8-3.6,2.21-3.48,2.04-6.24-.12-1.91-.96-2.03-1.5-4.56-.61-2.86-.17-3.96-.16-6.72,0-1.33.4-5.52.74-6.72l.99-2.64c.48-1.77.32-2.67,1.23-4.56l3.3-6c1.41-2.08,3.14-4.04,3.93-6.48.55-1.68.39-4.86.36-6.72l-.32-4.56-1.85-6.48c-.39-1.27-1.73-5.63-1.62-6.72.3-3,4.45-6.62,7.14-7.63l4.17-1.5c.31-.27.25-.6.2-.96-.46-3.08-2.1-4.79-3.7-7.2l-1.98-3.18c-.84-1.38-1.8-3.52-3.24-4.25-.16-1.49-2.07-3.57-2.97-4.8l-5.52-8.4-.85-1.68c-.91-1.58-1.89-3.11-2.6-4.8l-1.86-4.8-.97-1.68-2.14-4.8-.89-1.68-1.82-5.04-.4-1.68-.63-1.44c-.47-1.08-.54-2.42-.7-3.6Zm-124.08,4.32l-5.28,3.68-2.84,1.67-2.03,1.48-1.61,1-3.84,2.71-4.56,2.86-3.12,2.1-3.84,1.67c-2.17.55-5.8.93-7.61,2.23-.75.54-2.1,2.28-2.38,3.16-.32,1.03-.24,2.13-.74,3.12-.69,1.38-1.8,1.85-2.23,2.66-.3.57-.25,1.5-.24,2.14.02,2.01.38,1.93.86,3.6,1.02,3.6.4,2.04,2.05,5.52.35.74.58,1.47,1.09,2.15.47.63.94.94,1.45,1.49l4.16,5c.66,1.08.78,2.19,1.2,3.36l2.39,5.76c.43,1.07.71,2.71,1.68,3.36,0,2.26,1.67,2.55,1.54,5.76v2.16c-.06,2.18-.57,5.47.75,7.37.36.52,2.38.92,3.23,1.33,2.67,1.3,4.25,2.69,4.85,5.7.32,1.62-.09,3.35-.86,4.8-.36.66-1.11,1.46-1.19,2.16-.14,1.18,1.97,4.25,2.09,5.76.1,1.27-1.02,3.26-1.38,4.56-.47,1.73-.05,3.53.81,5.04,1.3-.64,2.28-1.86,3.36-2.81l7.44-6.77,2.88-2.46,11.28-10.24,5.04-4.6c1.01-1.01,2.58-2.61,3.84-3.25,1.95-1,5.31,0,5.51-3.47.09-1.6-.53-3.67-.85-5.28l-2.17-9.84c-.51-2.07-.76-4.66-1.88-6.46-.8-1.28-1.69-1.16-2.75-2.04l-4.77-4.95c-1.58-1.85-2.67-4.98-3.84-7.2l-1.64-3.12-2.81-4.63-1.91-7.2-.83-2.57-.53-2.64-.61-1.92c-.55-2.33-.63-4.58-.6-6.96.03-2.52,1.78-5.18,1.44-6.96Zm194.16,114.24h-.24l.24.24v-.24Z"/>
    <path id="outline" class="cls-1" d="m64.84,0h191.28l2.88.2c3.18.22,6.22.54,9.36,1.17,26.71,5.34,47.75,26.38,53.09,53.09.63,3.14.96,6.18,1.17,9.36l.22,2.88v413.76l-.22,2.88c-.22,3.18-.54,6.22-1.17,9.36-5.36,26.82-26.26,47.72-53.09,53.09-3.14.63-6.18.96-9.36,1.17l-2.88.22H66.76l-2.88-.22c-3.18-.22-6.22-.54-9.36-1.17-26.82-5.36-47.72-26.26-53.09-53.09-.63-3.14-.96-6.18-1.17-9.36l-.22-2.88V81.1c0-10.19-.49-18.99,1.89-29.04,3.17-13.37,10.49-25.55,20.67-34.76,5.2-4.7,10.53-7.98,16.8-11.02,5.48-2.65,12.22-4.55,18.24-5.48l4.56-.56,2.64-.24Zm.72,15.6l-2.64.33c-5.22.75-10.39,2.15-15.12,4.52-4.23,2.11-7.73,4.23-11.28,7.42-8.6,7.72-14.23,17.57-16.14,29-.33,1.99-.66,4.22-.66,6.24v418.8c0,2.39.58,6.04,1.1,8.4,3.5,15.89,14.49,29.13,29.62,35.23,4.65,1.87,11.31,3.64,16.32,3.65h189.36c4.62,0,11.3-1.65,15.6-3.36,14.61-5.82,25.3-17.49,29.62-32.64.91-3.18,1.81-7.99,1.82-11.28V63.1c0-3.02-.73-7.13-1.47-10.08-3.86-15.37-15.25-28.62-30.21-34.16-4.72-1.74-10.8-3.28-15.84-3.27H65.56Z"/>
  </g>
</svg>